Coordinates
version=1
nRows=26
nColumns=22
inDegrees=yes

Units are S.I. units (second, meters, Newtons, ...)
If the header above contains a line with 'inDegrees', this indicates whether rotational values are in degrees (yes) or radians (no).

endheader
time	pelvis_tilt	pelvis_list	pelvis_rotation	pelvis_tx	pelvis_ty	pelvis_tz	hip_flexion_r	hip_adduction_r	hip_rotation_r	knee_angle_r	ankle_angle_r	subtalar_angle_r	hip_flexion_l	hip_adduction_l	hip_rotation_l	knee_angle_l	ankle_angle_l	subtalar_angle_l	lumbar_extension	lumbar_bending	lumbar_rotation
      1.49000000	     -0.93325580	     -1.76545494	     -7.15178511	     -1.16189408	      0.92904209	      0.74406886	     -1.54646516	     -2.29835988	      1.78852058	     -7.02514471	     10.07399907	      4.41085866	     -3.76892268	     -5.33034263	    -12.40280569	     -7.29977366	      9.65677406	      2.39374007	     -2.81986981	     -1.88369407	      2.02821367
      1.50000000	     -1.06938351	     -1.74442810	     -7.11708614	     -1.16134932	      0.92877583	      0.74435657	     -1.35930594	     -2.27407605	      1.74756911	     -7.18904323	     10.19441462	      4.28945110	     -3.64671887	     -5.35604874	    -12.38378474	     -7.31726001	      9.68972770	      2.53430161	     -2.71767291	     -1.88420171	      1.95856759
      1.51000000	     -1.13081209	     -1.75533912	     -7.10208936	     -1.16072289	      0.92862006	      0.74469713	     -1.25595176	     -2.22399858	      1.73320273	     -7.35998935	     10.27702262	      4.24597435	     -3.65195057	     -5.39946988	    -12.34693700	     -7.26974475	      9.69520572	      2.57848710	     -2.70293043	     -1.85789265	      1.95276062
      1.52000000	     -1.26128930	     -1.72175443	     -7.06681749	     -1.16009319	      0.92834935	      0.74503583	     -1.05838326	     -2.20927909	      1.70357540	     -7.56764929	     10.43380573	      4.11731851	     -3.55197597	     -5.41212365	    -12.30708593	     -7.26297616	      9.70861895	      2.70871547	     -2.60118356	     -1.87699859	      1.89447966
      1.53000000	     -1.33546594	     -1.73423830	     -7.04921440	     -1.15942116	      0.92817096	      0.74544641	     -0.92351110	     -2.14914464	      1.68772543	     -7.78087804	     10.52942818	      4.06012882	     -3.54791483	     -5.46452005	    -12.25523716	     -7.21229951	      9.71765848	      2.75836221	     -2.57392745	     -1.85343667	      1.90234679
      1.54000000	     -1.50656315	     -1.70148001	     -7.01573500	     -1.15877887	      0.92783895	      0.74588583	     -0.65285925	     -2.12063088	      1.64913258	     -8.04733596	     10.71060164	      3.89782352	     -3.39653898	     -5.49313753	    -12.21241578	     -7.22567886	      9.73992054	      2.90239953	     -2.43101223	     -1.87568360	      1.85104928
      1.55000000	     -1.65106984	     -1.70622606	     -6.99658770	     -1.15811576	      0.92755232	      0.74642689	     -0.40727310	     -2.04954603	      1.61340217	     -8.32653902	     10.85734006	      3.77171051	     -3.29535893	     -5.56101332	    -12.16789496	     -7.21595198	      9.76995703	      3.00377584	     -2.32864449	     -1.86605311	      1.84098031
      1.56000000	     -1.80494799	     -1.70766019	     -6.98076755	     -1.15743367	      0.92724914	      0.74704062	     -0.13987462	     -1.97613498	      1.56951075	     -8.62893395	     11.00939820	      3.63661154	     -3.17913285	     -5.63181599	    -12.11845458	     -7.22130838	      9.79697910	      3.10739474	     -2.21703206	     -1.86648429	      1.84431023
      1.57000000	     -1.95106925	     -1.70703929	     -6.96720154	     -1.15668907	      0.92694312	      0.74772066	      0.11986105	     -1.90216516	      1.53655437	     -8.94058420	     11.18654805	      3.50946045	     -3.08595385	     -5.70026367	    -12.07760073	     -7.20592377	      9.83032529	      3.19914063	     -2.10967389	     -1.87095983	      1.83754983
      1.58000000	     -2.09586478	     -1.69410736	     -6.95659375	     -1.15591068	      0.92662481	      0.74846624	      0.38317881	     -1.83574135	      1.52646961	     -9.26424992	     11.37162286	      3.36838306	     -2.99362333	     -5.75809019	    -12.03130410	     -7.19524694	      9.86088054	      3.28921417	     -2.00393900	     -1.89271185	      1.82843314
      1.59000000	     -2.22239062	     -1.66454883	     -6.93798369	     -1.15505249	      0.92630993	      0.74923346	      0.61972412	     -1.78651511	      1.54853168	     -9.58485209	     11.57299689	      3.22575247	     -2.92641482	     -5.79541638	    -11.98028781	     -7.17596102	      9.89131985	      3.36805326	     -1.90951814	     -1.92928269	      1.80834936
      1.60000000	     -2.33560177	     -1.60976073	     -6.90641100	     -1.15412308	      0.92598730	      0.75000986	      0.83436227	     -1.76202590	      1.61454756	     -9.90010732	     11.79008882	      3.06533918	     -2.87009324	     -5.80368744	    -11.92177681	     -7.16103991	      9.91910565	      3.44204804	     -1.82235148	     -1.99042916	      1.76612225
      1.61000000	     -2.43010249	     -1.53442727	     -6.86169047	     -1.15313200	      0.92566099	      0.75080174	      1.02224578	     -1.75686355	      1.73278156	    -10.21345074	     12.02080112	      2.87827542	     -2.82861564	     -5.78894826	    -11.84353482	     -7.15514351	      9.94506592	      3.50965810	     -1.75281065	     -2.07258031	      1.71265471
      1.62000000	     -2.49106406	     -1.44207645	     -6.80683215	     -1.15200291	      0.92534504	      0.75161161	      1.14798616	     -1.77025087	      1.90351016	    -10.49693499	     12.28778194	      2.72389064	     -2.84246487	     -5.74847828	    -11.76350748	     -7.12071155	      9.99163698	      3.56056726	     -1.70420027	     -2.16851739	      1.62329108
      1.63000000	     -2.52341283	     -1.35122782	     -6.73087689	     -1.15082566	      0.92504829	      0.75242763	      1.21783835	     -1.78100785	      2.14060178	    -10.74728213	     12.53864211	      2.61511326	     -2.87127428	     -5.70992755	    -11.64110952	     -7.11964660	     10.06592823	      3.59949331	     -1.69191586	     -2.25957837	      1.53176847
      1.64000000	     -2.60349087	     -1.22965959	     -6.67196456	     -1.14964212	      0.92466717	      0.75337489	      1.37202766	     -1.80869265	      2.33850726	    -11.05534478	     12.82273107	      2.28320355	     -2.82146683	     -5.65582232	    -11.58241811	     -7.17215086	     10.10540248	      3.67446159	     -1.61550339	     -2.38670317	      1.42688308
      1.65000000	     -2.62587093	     -1.16620981	     -6.60195393	     -1.14839842	      0.92436954	      0.75441588	      1.41175281	     -1.77723266	      2.55170278	    -11.28525236	     13.05911356	      2.19271655	     -2.83926820	     -5.66502184	    -11.48304655	     -7.23718869	     10.22459087	      3.70982757	     -1.61533412	     -2.45371655	      1.32445415
      1.66000000	     -2.73382873	     -1.10008031	     -6.55528967	     -1.14722313	      0.92395104	      0.75564638	      1.58689682	     -1.72857293	      2.66622316	    -11.58424112	     13.30348221	      1.85455813	     -2.71532511	     -5.70345101	    -11.45915742	     -7.40249776	     10.34876133	      3.79993450	     -1.52038991	     -2.52765923	      1.22212954
      1.67000000	     -2.81267367	     -1.08572120	     -6.50637649	     -1.14602443	      0.92358508	      0.75701721	      1.69833262	     -1.62129324	      2.75506656	    -11.83460882	     13.49247802	      1.62372375	     -2.60903284	     -5.80747201	    -11.41147027	     -7.61494838	     10.51648348	      3.86234829	     -1.46754953	     -2.55078048	      1.13067232
      1.68000000	     -2.89815106	     -1.09176135	     -6.46383687	     -1.14482042	      0.92321295	      0.75853567	      1.80640857	     -1.48558887	      2.80186350	    -12.06899241	     13.65990221	      1.38597308	     -2.47012145	     -5.94919372	    -11.36080046	     -7.88643389	     10.69334803	      3.91550353	     -1.41160239	     -2.55943901	      1.05714569
      1.69000000	     -2.97734804	     -1.11964029	     -6.42772315	     -1.14357200	      0.92284514	      0.76019007	      1.89092292	     -1.32105309	      2.82413174	    -12.27939545	     13.82551848	      1.15107152	     -2.32058661	     -6.12588553	    -11.31355795	     -8.20602633	     10.87858104	      3.94908176	     -1.36138553	     -2.55141506	      0.99423124
      1.70000000	     -3.05136711	     -1.16584192	     -6.39438058	     -1.14228901	      0.92246647	      0.76197502	      1.95520325	     -1.12985898	      2.84231560	    -12.47326029	     13.99510672	      0.90891178	     -2.15220129	     -6.33491227	    -11.27046050	     -8.58317434	     11.07728354	      3.96322442	     -1.31957680	     -2.52781164	      0.93597805
      1.71000000	     -3.14030999	     -1.22630145	     -6.36813365	     -1.14098239	      0.92205088	      0.76389515	      2.02570006	     -0.91232547	      2.89073997	    -12.65620575	     14.16398422	      0.62015932	     -1.94080107	     -6.57469989	    -11.22828369	     -9.02118672	     11.26360050	      3.96239001	     -1.26165567	     -2.49028767	      0.86478326
      1.72000000	     -3.18293732	     -1.31164282	     -6.34136298	     -1.13960079	      0.92166083	      0.76593412	      2.01612182	     -0.66966102	      2.92274754	    -12.79614076	     14.34852478	      0.42660940	     -1.75167307	     -6.84877632	    -11.18397433	     -9.53028007	     11.52027182	      3.94606149	     -1.25657084	     -2.43769206	      0.85036120
      1.73000000	     -3.25573020	     -1.42301360	     -6.31902657	     -1.13823356	      0.92119644	      0.76812017	      2.03796822	     -0.38281878	      2.99993524	    -12.94435916	     14.51156643	      0.17905052	     -1.48292577	     -7.17267846	    -11.12634263	    -10.13817752	     11.79749867	      3.92411250	     -1.22715450	     -2.35774129	      0.82032164
      1.74000000	     -3.32667187	     -1.55643585	     -6.30895722	     -1.13682283	      0.92068821	      0.77041725	      2.04436166	     -0.06872763	      3.08646681	    -13.07668139	     14.67730055	     -0.05536494	     -1.17493837	     -7.53250468	    -11.04708833	    -10.84436330	     12.10919563	      3.90223760	     -1.20064048	     -2.25021194	      0.82100893
